<svg width="863.66" height="151.616" viewBox="0 0 287.88 50.538" xml:space="preserve" xmlns="http://www.w3.org/2000/svg"><text x="82.118" y="13.276" font-size="3.175" stroke-width=".265" xml:space="preserve" transform="translate(-94.436 -49.259)"/><path d="M101.314 46.602q-1.01.68-1.837 1.274-.809.595-2.132 1.247-1.12.538-2.444.906-1.304.396-2.884.396-2.977 0-5.42-1.274-2.426-1.303-4.227-4.05-1.764-2.69-2.756-6.825-.992-4.163-.992-9.657 0-5.21.955-9.317.956-4.107 2.756-6.939 1.746-2.747 4.208-4.191 2.48-1.444 5.494-1.444 2.205 0 4.391.821 2.205.821 4.888 2.889v6.655h-.276q-2.26-2.917-4.483-4.248t-4.759-1.331q-2.076 0-3.748 1.048-1.654 1.02-2.958 3.2-1.268 2.124-1.985 5.38-.698 3.229-.698 7.477 0 4.446.772 7.646.79 3.2 2.02 5.211 1.287 2.096 2.996 3.115 1.727.991 3.638.991 2.628 0 4.924-1.387 2.297-1.388 4.3-4.163h.257zm34.562-13.877q0 4.588-.661 8.014-.644 3.399-2.132 5.665-1.415 2.152-3.307 3.143-1.893.991-4.41.991-2.572 0-4.483-1.048-1.911-1.047-3.216-3.087-1.488-2.322-2.15-5.607-.643-3.285-.643-8.07V7.491h3.638v25.516q0 3.427.294 5.41.313 1.982 1.03 3.596.808 1.84 2.186 2.775 1.396.935 3.344.935 1.966 0 3.344-.907 1.378-.934 2.205-2.803.717-1.614 1.01-3.682.313-2.096.313-5.182V7.492h3.638zm35.278-20.249h-9.775V49.66h-3.638V12.476h-9.775V7.492h23.188zM200.02 49.66h-3.454v-3.313q-1.489 1.982-3.106 3.086-1.617 1.105-3.51 1.105-3.674 0-5.842-4.361-2.15-4.362-2.15-12.093 0-4.022.735-7.165.753-3.144 2.021-5.353 1.25-2.152 2.903-3.285 1.672-1.133 3.455-1.133 1.617 0 2.866.539 1.25.51 2.628 1.614V5.594h3.454zm-3.454-7.788V23.719q-1.397-.963-2.5-1.331-1.102-.368-2.406-.368-2.903 0-4.52 3.115-1.617 3.115-1.617 8.836 0 5.635 1.25 8.58 1.249 2.918 4.005 2.918 1.47 0 2.976-.992 1.507-1.019 2.812-2.605zm35.02 7.788h-3.435v-3.37q-.46.481-1.25 1.36-.772.849-1.507 1.359-.863.651-1.984 1.076-1.12.453-2.627.453-2.775 0-4.704-2.832-1.93-2.832-1.93-7.222 0-3.596.993-5.805 1.01-2.237 2.866-3.512 1.874-1.274 4.502-1.727t5.64-.68v-.821q0-1.813-.422-3.002-.404-1.19-1.176-1.87-.735-.65-1.764-.877-1.029-.227-2.15-.227-1.36 0-3.031.567-1.672.538-3.455 1.585h-.183v-5.409q1.01-.424 2.921-.934 1.911-.51 3.767-.51 2.168 0 3.767.566 1.616.539 2.792 1.87 1.158 1.302 1.764 3.37.607 2.067.607 5.126zm-3.435-7.788v-8.807q-1.58.141-3.73.424-2.132.284-3.381.822-1.489.65-2.407 2.039-.919 1.359-.919 3.766 0 2.719 1.066 4.106 1.065 1.36 3.252 1.36 1.819 0 3.326-1.076 1.506-1.105 2.793-2.634zm29.564 7.505q-.974.396-2.132.651-1.139.255-2.04.255-3.141 0-4.777-2.605-1.635-2.606-1.635-8.355V22.501h-2.334v-4.474h2.334v-9.09h3.454v9.09h7.13V22.5h-7.13v14.415q0 2.492.074 3.908.073 1.388.514 2.606.405 1.133 1.103 1.67.716.51 2.168.51.845 0 1.764-.368.919-.396 1.323-.651h.184zm30.17-14.981h-15.122q0 2.917.57 5.097.569 2.153 1.561 3.54.955 1.36 2.26 2.04 1.323.68 2.903.68 2.095 0 4.208-1.275 2.131-1.303 3.031-2.55h.184v5.806q-1.745 1.133-3.564 1.898-1.82.765-3.822.765-5.108 0-7.975-4.248-2.866-4.277-2.866-12.121 0-7.76 2.738-12.32 2.756-4.559 7.24-4.559 4.152 0 6.393 3.738 2.26 3.738 2.26 10.62zm-3.363-4.078q-.018-4.192-1.378-6.485-1.341-2.294-4.097-2.294-2.775 0-4.429 2.52-1.635 2.52-1.855 6.259z" fill="#4b4b4b" aria-label="CUTdate"/><g fill="#4b4b4b"><path class="st0" d="M30.453 0C24.615 4.469 10.811 17.372.461 17.372c-.681 0-.407.508-.407.508l9.044 3.893-5.501 5.608v9.279l29.321 12.62 26.857-27.383v-9.278zM7.995 18.44c3.106-1.196 6.233-2.965 9.23-4.953a84.46 84.46 0 0 0 2.217-1.53l.48-.342c.707-.51 1.405-1.023 2.088-1.54l.235-.179c.663-.504 1.312-1.007 1.947-1.506l.256-.202c.702-.554 1.383-1.099 2.044-1.634l23.884 10.28C44.08 21.772 35.99 27.352 29.784 27.352a8.9 8.9 0 0 1-1.286-.09l-14.866-6.398-2.56-1.1zm3.666 4.435 16.13 6.943c.648.118 1.311.174 1.993.174 6.491 0 14.34-5.075 20.731-9.96L32.176 38.729 6.816 27.816zm45.551-2.079L32.33 46.165 6.161 34.903V32.71L32.495 44.04l24.717-25.2zm0-3.516L32.248 42.733 6.16 31.507v-2.338l26.352 11.34 24.7-25.182z"/><path class="st0" d="M24.449 21.989c.093.047.219.033.314-.038l2.381-1.101c.272-.125.53-.28.771-.458l7.667-5.715c.095-.071.095-.15.001-.198l-1.749-.894a.72.72 0 0 0-.376-.073l-3.069.05a.546.546 0 0 0-.329.109l-1.95 1.453c-.125.094-.079.156.078.158l2.85-.005.03.015-5.377 4.01-3.115 1.532c-.095.07-.095.149-.001.196z"/></g><style>.st0{fill:#4b4b4b}</style></svg>